<svg xmlns="http://www.w3.org/2000/svg" width="2143.329" height="745.672" viewBox="0 0 2143.329 745.672"><g transform="translate(-272.487 -214.578)"><text transform="translate(272.487 865.25)" fill="#fff" font-size="380" font-family="Playfair Display" font-weight="700"><tspan x="0" y="0">Lorem</tspan></text><text transform="translate(1785.815 865.25)" fill="#fff" font-size="380" font-family="Playfair Display" font-weight="700"><tspan x="0" y="0">Bar</tspan></text><line y2="268" transform="translate(1739.151 906.25) rotate(90)" fill="none" stroke="#fff" stroke-width="50"/><path d="M0,0H300" transform="translate(1605.151 606.25) rotate(90)" fill="none" stroke="#fff" stroke-width="50"/><path d="M0,0H300" transform="translate(1839.521 231.307) rotate(132)" fill="none" stroke="#fff" stroke-width="50"/><path d="M134,0,268,128.33H0Z" transform="translate(1739.151 551.915) rotate(180)" fill="#e29500"/><g transform="translate(1930.802 637.75) rotate(180)" fill="none"><path d="M325.651,0,651.3,300H0Z" stroke="none"/><path d="M 325.65087890625 67.98287963867188 L 128.0707397460938 250 L 523.23095703125 250 L 325.65087890625 67.98287963867188 M 325.65087890625 0 L 651.3016967773438 300 L -6.103515625e-05 300 L 325.65087890625 0 Z" stroke="none" fill="#fff"/></g></g></svg>